# xmcd
#
# Track frame offsets:
#	150
#	22604
#	47074
#	69933
#	88378
#	104909
#	121519
#	136947
#	168968
#	182651
#	195797
#
# Disc length: 2852 seconds
#
# Revision: 1
# Processed by: cddbd v1.5.2PL0 Copyright (c) Steve Scherf et al.
# Submitted via: audiograbber 1.83.01
#
DISCID=840b220b
DTITLE=Robert Krestan a Druha Trava - Dylanovky
DYEAR=2007
DGENRE=Country/Folk
TTITLE0=Jeste neni tma
TTITLE1=Cim dal tim tiz se dejcha
TTITLE2=Sbohem, Angelino
TTITLE3=Senore
TTITLE4=Jak mlyn se toci svet
TTITLE5=U Majdy na statku
TTITLE6=Ceka nas posledni rano
TTITLE7=Lily, Rosemary a Srdcovej kluk
TTITLE8=Zvoni zvony
TTITLE9=Nashville Skyline Rag
TTITLE10=Divka ze severu
EXTD=
EXTT0=
EXTT1=
EXTT2=
EXTT3=
EXTT4=
EXTT5=
EXTT6=
EXTT7=
EXTT8=
EXTT9=
EXTT10=
PLAYORDER=
